<?xml version="1.0" encoding="utf-8"?>
<!-- Generator: Adobe Illustrator 27.3.1, SVG Export Plug-In . SVG Version: 6.00 Build 0)  -->
<svg version="1.1" id="Layer_1" xmlns="http://www.w3.org/2000/svg" xmlns:xlink="http://www.w3.org/1999/xlink" x="0px" y="0px"
	 viewBox="0 0 126 60" style="enable-background:new 0 0 126 60;" xml:space="preserve">
<style type="text/css">
	.st0{fill:#FFFFFF;}
</style>
<path class="st0" d="M89.8,7L62.6,17.6H0v0l0,0l0,1v0.6h0l0.1,22L35.7,52L63,41.4l0.5-0.2v0.2h61.9v-1.7v-22L89.8,7z M36.5,27.2
	l25.4-7.7V40l-25.4,9.9V27.2z M63.6,19L89,9.1v22.7l-25.4,7.7V19z M90.7,9l33.1,10v20.5l-33.1-7.8V9z M57.1,19.2l-21.5,6.5L7.2,19.2
	H57.1z M1.7,19.5l33.2,7.8V50L1.7,40L1.7,19.5z M68.3,39.8l21.5-6.5l28.4,6.5H68.3z"/>
</svg>
